<svg width="47" height="82" viewBox="0 0 47 82" fill="none" xmlns="http://www.w3.org/2000/svg">
<path d="M13.7822 58.7744C13.2473 58.652 12.6817 58.6061 12.1773 58.3919C11.841 58.2542 11.6423 57.8258 12.1162 57.5811C12.4677 57.3975 12.8499 57.3363 12.7429 56.8161C12.6359 56.2807 12.376 55.9288 11.5354 55.99C11.8716 54.5825 11.9939 53.1751 12.5594 51.9818C12.9568 51.125 12.8499 50.4213 12.6511 49.687C12.2232 48.1571 11.6729 46.6425 11.2144 45.1127C11.1074 44.7455 11.1227 44.3019 11.2297 43.9347C11.5965 42.619 11.8258 41.1962 12.483 40.0335C13.9809 37.4481 14.3478 34.4648 15.5094 31.7876C15.5553 31.6958 15.5706 31.5887 15.6317 31.5122C16.8239 29.8753 16.8086 27.8405 17.4047 26.0047C17.634 25.2857 17.8939 24.5513 18.2913 23.9088C18.9332 22.9144 19.4376 21.8894 19.5599 20.6961C19.6669 19.6405 20.2172 18.7991 20.8438 18.0035C20.9508 17.8658 21.0426 17.7128 21.1648 17.5752C22.5252 16.183 23.2436 14.5766 23.5187 12.5725C23.748 10.8591 24.2677 9.03853 25.5669 7.75345C26.7438 6.59075 28.0277 5.51985 29.7091 5.03029C30.565 4.78551 31.314 4.20417 32.1241 3.8217C32.3992 3.69931 32.7508 3.71461 33.0565 3.72991C33.2246 3.74521 33.3927 3.89819 33.622 3.89819C33.5303 3.8064 33.4539 3.68401 33.3469 3.60752C32.3381 2.87319 32.3228 2.85789 32.9342 1.77169C33.3927 0.945559 33.9583 0.257121 34.9518 0.0582393C35.7772 -0.110046 36.4344 0.0735379 36.9694 0.777275C37.9935 2.13885 39.3538 3.04147 41.081 2.7661C43.2209 2.42953 44.5354 3.74521 46.1251 4.87731C45.8499 5.07619 45.6512 5.24447 45.4372 5.39746C43.7865 6.57545 42.8847 8.12061 42.793 10.1859C42.7318 11.6393 43.2821 12.9091 43.71 14.2401C43.7559 14.4083 43.8629 14.5766 43.9852 14.6837C45.0551 15.6475 45.1774 17.3916 44.2603 18.4931C43.6183 19.258 43.5113 21.3233 44.0769 22.2565C42.7318 23.9547 42.0134 25.9435 41.4784 28.0241C41.4326 28.2383 41.4173 28.5137 41.509 28.6973C42.2274 29.9517 42.0593 31.3133 42.0134 32.6443C41.9217 35.138 41.6313 37.6164 41.616 40.11C41.5854 43.5063 41.2492 46.8414 40.6378 50.1765C39.9805 53.6646 39.0787 57.0609 37.6114 60.2736C37.2904 60.9774 36.6484 61.5281 36.144 62.14C35.9453 62.3695 35.7008 62.5531 35.5173 62.7979C34.1264 64.7561 33.5762 67.0203 33.194 69.3304C33.1176 69.8353 33.0412 70.3401 32.8883 70.8144C32.3687 72.4054 33.087 73.8588 33.3775 75.3581C33.5456 76.1995 33.729 77.0409 33.9124 77.8823C34.1876 79.1827 33.6067 80.3301 33.194 81.4928C33.1176 81.7223 32.5062 81.7988 32.1241 81.86C30.565 82.1353 30.5498 82.1354 30.1523 80.6208C29.8466 79.4581 29.7549 78.2036 29.2811 77.1174C28.2876 74.8073 26.8967 72.7267 24.6039 71.4722C24.0384 71.1662 23.3659 71.0285 22.785 70.7532C22.3571 70.539 22.0361 70.2636 21.44 70.3248C20.9203 70.386 20.3242 70.08 20.0337 69.3916C19.7128 68.6573 19.2542 67.9994 18.3983 67.6781C17.9091 67.4946 17.3283 67.158 17.634 66.3472C17.7104 66.1483 17.5576 65.7964 17.4047 65.5975C16.1361 63.9759 15.2801 62.1553 14.7299 60.1665C14.577 59.6005 14.1644 59.1109 13.8739 58.5755C13.8587 58.6367 13.8128 58.7132 13.7822 58.7744Z" fill="#ABD1C6"/>
<path d="M35.7636 18.7173C35.7636 18.7173 28.856 24.2879 35.7636 29.6358C42.6712 34.9836 27.8533 35.3178 29.8587 38.5488C31.8642 41.7798 23.0625 42.7825 20.1658 49.9129C17.2691 57.0434 24.8451 65.6222 24.8451 65.6222" stroke="#F9BC60" stroke-width="2" stroke-linecap="round"/>
<path d="M24.8358 66.8864C22.3064 63.1278 21.8369 62.7421 21.8369 61.3608C21.8369 59.4687 23.3333 57.9348 25.1793 57.9348C27.0253 57.9348 28.5217 59.4687 28.5217 61.3608C28.5217 62.7421 28.0522 63.1278 25.5228 66.8864C25.3568 67.1321 25.0018 67.1321 24.8358 66.8864ZM25.1793 62.7882C25.9485 62.7882 26.572 62.1491 26.572 61.3608C26.572 60.5724 25.9485 59.9333 25.1793 59.9333C24.4102 59.9333 23.7866 60.5724 23.7866 61.3608C23.7866 62.1491 24.4102 62.7882 25.1793 62.7882Z" fill="#F08080"/>
<path d="M35.2483 18.4432C31.4543 12.8512 30.75 12.2773 30.75 10.2221C30.75 7.40706 32.9947 5.125 35.7636 5.125C38.5325 5.125 40.7772 7.40706 40.7772 10.2221C40.7772 12.2773 40.0729 12.8512 36.2788 18.4432C36.0299 18.8088 35.4973 18.8088 35.2483 18.4432ZM35.7636 12.346C36.9173 12.346 37.8526 11.3951 37.8526 10.2221C37.8526 9.04919 36.9173 8.09834 35.7636 8.09834C34.6099 8.09834 33.6746 9.04919 33.6746 10.2221C33.6746 11.3951 34.6099 12.346 35.7636 12.346Z" fill="#F08080"/>
<path d="M22.8153 32.2967C23.0544 33.8062 23.2807 35.3064 23.5418 36.8124C23.6297 37.2955 23.5196 37.5275 22.9982 37.5875C22.1023 37.7068 22.1058 37.7288 22.2343 38.612C22.2722 38.9223 22.3008 39.2453 22.2818 39.5533C22.2392 40.2829 21.7523 40.8457 21.0802 40.9521C20.3768 41.0748 19.7178 40.6935 19.4686 39.9762C19.3235 39.5588 19.2426 39.1198 19.1618 38.6808C19.106 38.3282 18.9528 38.2169 18.5892 38.2745C15.4728 38.7794 12.3529 39.2623 9.23475 39.7561C8.90421 39.8085 8.78191 39.9634 8.84528 40.2922C8.91214 40.643 8.95522 40.9863 9.01107 41.3389C9.13322 42.1102 8.67949 42.8823 8.00335 43.0346C7.22051 43.2263 6.43158 42.8091 6.194 42.0223C6.07609 41.6343 6.02254 41.2249 5.96898 40.8155C5.92471 40.3933 5.72747 40.289 5.33256 40.3629C4.24525 40.5577 4.36416 40.5953 4.18965 39.4935C3.70222 36.4873 3.17071 33.488 2.7604 30.4696C2.5631 29.01 2.61922 27.5102 2.57618 26.0261C2.5462 25.1951 2.5603 24.357 2.53033 23.526C2.49501 22.4473 2.97656 21.6369 3.81778 21.0293C5.55181 19.7833 7.52681 19.1316 9.58307 18.6365C12.04 18.0328 14.5118 18.0931 16.9808 18.4926C18.6385 18.761 19.8318 19.5207 20.2444 21.3415C20.6535 23.1403 21.3457 24.8717 21.7896 26.6763C22.2423 28.536 22.5297 30.4219 22.8832 32.2973C22.8484 32.2915 22.8374 32.2932 22.8153 32.2967ZM12.4423 29.7719C14.8112 29.3967 17.1801 29.0215 19.538 28.6481C20.2652 28.5329 20.4049 28.2736 20.1923 27.5731C19.6707 25.8486 19.1618 24.1333 18.6622 22.4053C18.4641 21.7252 18.2216 21.549 17.5275 21.6589C13.4177 22.3098 9.30792 22.9608 5.19813 23.6117C4.48195 23.7251 4.33707 23.9514 4.34785 24.6612C4.40321 26.437 4.44756 28.2145 4.48089 29.9938C4.49635 30.8045 4.69478 30.9877 5.48809 30.8621C7.82569 30.5031 10.1395 30.1367 12.4423 29.7719ZM10.9757 20.1553C9.58738 20.3752 8.18981 20.6079 6.79803 20.8057C6.31149 20.8715 6.04595 21.0491 6.15525 21.5965C6.26803 22.1659 6.38464 22.2604 7.00166 22.1627C7.22203 22.1278 7.44239 22.0929 7.66275 22.058C10.23 21.6514 12.7972 21.2448 15.3645 20.8382C15.9484 20.7457 16.1356 20.5014 16.0298 19.976C15.931 19.4947 15.6532 19.3806 15.1701 19.4684C13.7668 19.7359 12.375 19.9337 10.9757 20.1553ZM18.4972 33.7713C18.6298 34.6086 19.2424 35.0537 20.0926 34.9304C20.9427 34.807 21.4139 34.1451 21.2795 33.2967C21.1376 32.4721 20.514 32.0287 19.6748 32.1503C18.7841 32.3027 18.3483 32.9026 18.4972 33.7713ZM6.79361 37.0367C7.60317 36.9424 8.13119 36.2828 8.05136 35.4935C7.96804 34.6822 7.3194 34.1524 6.52086 34.245C5.64518 34.3498 5.16004 34.9236 5.26714 35.7424C5.36442 36.6419 5.95099 37.1363 6.79361 37.0367Z" fill="#F5F5F5"/>
<path d="M2.9482 29.0168C2.86095 28.4659 2.77369 27.915 2.68643 27.3641C2.64281 27.0886 2.54245 27.0254 2.26525 27.058C1.98979 27.1017 1.72535 27.1436 1.4499 27.1872C1.24055 27.2203 1.14782 27.348 1.17923 27.5463C1.35898 28.6812 1.53698 29.805 1.71673 30.9399C1.74814 31.1382 1.87752 31.242 2.08512 31.1978C2.36057 31.1542 2.62501 31.1123 2.90047 31.0687C3.18694 31.0233 3.25011 30.9229 3.21575 30.6347C3.11922 30.0966 3.03371 29.5567 2.9482 29.0168Z" fill="#F5F5F5"/>
<path d="M22.836 25.8669C22.7488 25.316 22.6615 24.7651 22.5743 24.2142C22.5306 23.9387 22.4303 23.8755 22.1531 23.9081C21.8776 23.9518 21.6132 23.9937 21.3377 24.0373C21.1284 24.0704 21.0356 24.1981 21.0671 24.3964C21.2468 25.5313 21.4248 26.6551 21.6045 27.79C21.636 27.9883 21.7653 28.0921 21.9729 28.0479C22.2484 28.0043 22.5128 27.9624 22.7883 27.9188C23.0748 27.8734 23.1379 27.773 23.1036 27.4848C23.007 26.9467 22.9215 26.4068 22.836 25.8669Z" fill="#F5F5F5"/>
</svg>
