<svg width="241" height="67" viewBox="0 0 241 67" fill="none" xmlns="http://www.w3.org/2000/svg">
<path d="M9.504 15.664C7.968 15.664 6.8 15.92 6 16.432C5.232 16.912 4.672 17.584 4.32 18.448C4 19.312 3.728 20.336 3.504 21.52C3.152 21.52 2.752 21.488 2.304 21.424C1.856 21.36 1.488 21.248 1.2 21.088C1.456 19.744 1.648 18.4 1.776 17.056C1.904 15.712 1.968 14.496 1.968 13.408C3.312 13.472 5.072 13.52 7.248 13.552C9.456 13.552 11.776 13.552 14.208 13.552C16.64 13.552 18.976 13.552 21.216 13.552C23.456 13.52 25.232 13.472 26.544 13.408C26.512 14.56 26.512 15.744 26.544 16.96C26.608 18.176 26.704 19.552 26.832 21.088C26.16 21.408 25.36 21.552 24.432 21.52C24.4 19.632 23.952 18.192 23.088 17.2C22.256 16.176 20.896 15.664 19.008 15.664H16.464V39.904C16.464 41.504 16.688 42.592 17.136 43.168C17.616 43.712 18.64 44.016 20.208 44.08C20.304 44.336 20.368 44.64 20.4 44.992C20.432 45.312 20.448 45.696 20.448 46.144C19.424 46.08 18.368 46.032 17.28 46C16.224 46 15.184 46 14.16 46C13.168 46 12.096 46 10.944 46C9.792 46.032 8.768 46.08 7.872 46.144C7.872 45.696 7.888 45.312 7.92 44.992C7.952 44.64 8.016 44.336 8.112 44.08C9.648 44.016 10.672 43.712 11.184 43.168C11.696 42.592 11.952 41.504 11.952 39.904V15.664H9.504ZM41.6828 46.432C41.3308 46.272 41.0428 45.984 40.8188 45.568C40.6268 45.152 40.5308 44.496 40.5308 43.6C40.5308 43.44 40.5308 43.248 40.5308 43.024C40.5628 42.8 40.5948 42.576 40.6268 42.352C40.4348 42.768 40.1948 43.184 39.9068 43.6C39.6188 44.016 39.2828 44.384 38.8988 44.704C38.3548 45.184 37.6668 45.584 36.8348 45.904C36.0028 46.192 34.9948 46.336 33.8108 46.336C31.7948 46.336 30.2588 45.888 29.2028 44.992C28.1468 44.064 27.6188 42.816 27.6188 41.248C27.6188 40 27.9068 38.944 28.4828 38.08C29.0908 37.184 29.8588 36.448 30.7868 35.872C31.7468 35.264 32.7708 34.784 33.8588 34.432C34.9788 34.08 36.0668 33.808 37.1228 33.616C38.1788 33.424 39.1068 33.264 39.9068 33.136C39.9068 31.824 39.8748 30.8 39.8108 30.064C39.7788 29.328 39.6828 28.752 39.5228 28.336C39.3948 27.888 39.1868 27.504 38.8988 27.184C38.1308 26.224 37.1388 25.744 35.9228 25.744C34.8668 25.744 34.0348 26.08 33.4268 26.752C32.8188 27.392 32.3868 28.144 32.1308 29.008C31.8748 29.872 31.7308 30.64 31.6988 31.312C31.3468 31.312 30.8988 31.296 30.3548 31.264C29.8428 31.2 29.4588 31.104 29.2028 30.976C29.2668 30.176 29.2828 29.28 29.2508 28.288C29.2188 27.296 29.1228 26.448 28.9628 25.744C30.2748 25.072 31.6508 24.544 33.0908 24.16C34.5628 23.776 35.9068 23.584 37.1228 23.584C38.3068 23.584 39.3148 23.76 40.1468 24.112C41.0108 24.432 41.6988 24.864 42.2108 25.408C43.0428 26.208 43.5868 27.264 43.8428 28.576C44.0988 29.856 44.2268 31.568 44.2268 33.712V38.992C44.2268 40.368 44.4028 41.328 44.7548 41.872C45.1068 42.384 45.9228 42.672 47.2028 42.736C47.2028 43.056 47.1868 43.424 47.1548 43.84C47.1228 44.224 47.0428 44.592 46.9148 44.944C46.1148 44.976 45.2188 45.136 44.2268 45.424C43.2668 45.68 42.4188 46.016 41.6828 46.432ZM35.1548 43.696C35.8588 43.696 36.5788 43.472 37.3148 43.024C38.0508 42.544 38.6588 41.808 39.1388 40.816C39.6508 39.824 39.9068 38.528 39.9068 36.928V35.104C39.1068 35.2 38.2588 35.344 37.3628 35.536C36.4668 35.696 35.6348 35.952 34.8668 36.304C34.0988 36.656 33.4748 37.152 32.9948 37.792C32.5148 38.4 32.2747 39.232 32.2747 40.288C32.2747 41.472 32.5628 42.336 33.1388 42.88C33.7148 43.424 34.3868 43.696 35.1548 43.696ZM50.901 46.144C50.901 45.824 50.917 45.488 50.949 45.136C50.981 44.752 51.045 44.4 51.141 44.08C52.421 44.08 53.285 43.792 53.733 43.216C54.213 42.608 54.453 41.504 54.453 39.904V30.4C54.453 29.632 54.373 29.008 54.213 28.528C54.085 28.016 53.765 27.632 53.253 27.376C52.741 27.12 51.941 26.992 50.853 26.992C50.853 26.256 50.997 25.664 51.285 25.216C51.765 25.216 52.437 25.136 53.301 24.976C54.197 24.816 55.061 24.608 55.893 24.352C56.725 24.096 57.333 23.84 57.717 23.584C58.005 23.68 58.245 23.872 58.437 24.16C58.661 24.448 58.773 24.896 58.773 25.504V39.904C58.773 41.504 58.981 42.608 59.397 43.216C59.845 43.792 60.581 44.08 61.605 44.08C61.701 44.4 61.765 44.768 61.797 45.184C61.829 45.6 61.845 45.92 61.845 46.144C61.013 46.08 60.133 46.032 59.205 46C58.277 46 57.349 46 56.421 46C55.525 46 54.581 46 53.589 46C52.597 46.032 51.701 46.08 50.901 46.144ZM56.229 18.16C55.429 18.16 54.757 17.888 54.213 17.344C53.669 16.8 53.397 16.144 53.397 15.376C53.397 14.512 53.685 13.808 54.261 13.264C54.837 12.72 55.493 12.448 56.229 12.448C57.093 12.448 57.781 12.72 58.293 13.264C58.837 13.808 59.109 14.512 59.109 15.376C59.109 16.112 58.821 16.768 58.245 17.344C57.701 17.888 57.029 18.16 56.229 18.16ZM73.8825 46.432C72.7945 43.328 71.7065 40.336 70.6185 37.456C69.5625 34.576 68.4425 31.696 67.2585 28.816C66.9065 27.92 66.5385 27.28 66.1545 26.896C65.8025 26.512 65.2745 26.208 64.5705 25.984C64.4425 25.664 64.3625 25.312 64.3305 24.928C64.2985 24.544 64.2825 24.208 64.2825 23.92C64.9225 23.952 65.5945 23.984 66.2985 24.016C67.0345 24.016 67.9305 24.016 68.9865 24.016C70.0425 24.016 70.9865 24 71.8185 23.968C72.6505 23.936 73.4665 23.904 74.2665 23.872C74.2665 24.192 74.2505 24.56 74.2185 24.976C74.1865 25.392 74.1225 25.728 74.0265 25.984C72.6825 26.112 71.9145 26.4 71.7225 26.848C71.5305 27.296 71.6105 27.968 71.9625 28.864C72.6665 30.592 73.3705 32.48 74.0745 34.528C74.8105 36.576 75.4985 38.496 76.1385 40.288L82.4265 24.016C82.6825 23.952 82.9865 23.904 83.3385 23.872C83.6905 23.84 84.0265 23.824 84.3465 23.824C85.3385 26.128 86.4265 28.736 87.6105 31.648C88.7945 34.528 89.9625 37.424 91.1145 40.336L93.8505 32.176C94.3625 30.608 94.5865 29.408 94.5225 28.576C94.4905 27.712 94.2505 27.088 93.8025 26.704C93.3545 26.32 92.7305 26.08 91.9305 25.984C91.6425 25.312 91.4985 24.608 91.4985 23.872C92.1065 23.904 92.7945 23.936 93.5625 23.968C94.3305 24 95.0665 24.016 95.7705 24.016C97.4985 24.016 98.9065 23.968 99.9945 23.872C99.9945 24.672 99.8665 25.376 99.6105 25.984C99.1305 26.112 98.7145 26.352 98.3625 26.704C98.0425 27.024 97.7065 27.6 97.3545 28.432C97.0345 29.264 96.6025 30.464 96.0585 32.032L91.2105 46C90.9225 46.16 90.5865 46.272 90.2025 46.336C89.8505 46.4 89.4505 46.432 89.0025 46.432C87.9785 43.808 86.8745 41.088 85.6905 38.272C84.5065 35.424 83.3705 32.752 82.2825 30.256L75.9945 46C75.5465 46.288 74.8425 46.432 73.8825 46.432ZM117.198 46.432C116.846 46.272 116.558 45.984 116.334 45.568C116.142 45.152 116.046 44.496 116.046 43.6C116.046 43.44 116.046 43.248 116.046 43.024C116.078 42.8 116.11 42.576 116.142 42.352C115.95 42.768 115.71 43.184 115.422 43.6C115.134 44.016 114.798 44.384 114.414 44.704C113.87 45.184 113.182 45.584 112.35 45.904C111.518 46.192 110.51 46.336 109.326 46.336C107.31 46.336 105.774 45.888 104.718 44.992C103.662 44.064 103.134 42.816 103.134 41.248C103.134 40 103.422 38.944 103.998 38.08C104.606 37.184 105.374 36.448 106.302 35.872C107.262 35.264 108.286 34.784 109.374 34.432C110.494 34.08 111.582 33.808 112.638 33.616C113.694 33.424 114.622 33.264 115.422 33.136C115.422 31.824 115.39 30.8 115.326 30.064C115.294 29.328 115.198 28.752 115.038 28.336C114.91 27.888 114.702 27.504 114.414 27.184C113.646 26.224 112.654 25.744 111.438 25.744C110.382 25.744 109.55 26.08 108.942 26.752C108.334 27.392 107.902 28.144 107.646 29.008C107.39 29.872 107.246 30.64 107.214 31.312C106.862 31.312 106.414 31.296 105.87 31.264C105.358 31.2 104.974 31.104 104.718 30.976C104.782 30.176 104.798 29.28 104.766 28.288C104.734 27.296 104.638 26.448 104.478 25.744C105.79 25.072 107.166 24.544 108.606 24.16C110.078 23.776 111.422 23.584 112.638 23.584C113.822 23.584 114.83 23.76 115.662 24.112C116.526 24.432 117.214 24.864 117.726 25.408C118.558 26.208 119.102 27.264 119.358 28.576C119.614 29.856 119.742 31.568 119.742 33.712V38.992C119.742 40.368 119.918 41.328 120.27 41.872C120.622 42.384 121.438 42.672 122.718 42.736C122.718 43.056 122.702 43.424 122.67 43.84C122.638 44.224 122.558 44.592 122.43 44.944C121.63 44.976 120.734 45.136 119.742 45.424C118.782 45.68 117.934 46.016 117.198 46.432ZM110.67 43.696C111.374 43.696 112.094 43.472 112.83 43.024C113.566 42.544 114.174 41.808 114.654 40.816C115.166 39.824 115.422 38.528 115.422 36.928V35.104C114.622 35.2 113.774 35.344 112.878 35.536C111.982 35.696 111.15 35.952 110.382 36.304C109.614 36.656 108.99 37.152 108.51 37.792C108.03 38.4 107.79 39.232 107.79 40.288C107.79 41.472 108.078 42.336 108.654 42.88C109.23 43.424 109.902 43.696 110.67 43.696ZM148.497 39.904C148.497 41.568 148.721 42.688 149.169 43.264C149.649 43.808 150.369 44.08 151.329 44.08C151.425 44.368 151.489 44.672 151.521 44.992C151.553 45.312 151.569 45.696 151.569 46.144C150.865 46.08 150.065 46.032 149.169 46C148.273 46 147.329 46 146.337 46C145.345 46 144.321 46.016 143.265 46.048C142.241 46.08 141.361 46.112 140.625 46.144C140.625 45.696 140.641 45.312 140.673 44.992C140.705 44.64 140.769 44.336 140.865 44.08C142.017 44.08 142.849 43.792 143.361 43.216C143.905 42.608 144.177 41.504 144.177 39.904V32.608C144.177 30.336 143.761 28.8 142.929 28C142.097 27.168 141.025 26.752 139.713 26.752C138.881 26.752 138.049 27.024 137.217 27.568C136.385 28.08 135.681 28.928 135.105 30.112C134.561 31.264 134.289 32.816 134.289 34.768V39.904C134.289 41.504 134.529 42.608 135.009 43.216C135.489 43.792 136.353 44.08 137.601 44.08C137.697 44.368 137.761 44.672 137.793 44.992C137.825 45.312 137.841 45.696 137.841 46.144C137.169 46.112 136.289 46.08 135.201 46.048C134.145 46.016 133.121 46 132.129 46C131.137 46 130.113 46 129.057 46C128.001 46.032 127.121 46.08 126.417 46.144C126.417 45.696 126.433 45.312 126.465 44.992C126.497 44.64 126.561 44.336 126.657 44.08C127.905 44.08 128.769 43.792 129.249 43.216C129.729 42.608 129.969 41.504 129.969 39.904V30.4C129.969 29.28 129.761 28.448 129.345 27.904C128.961 27.328 127.969 27.024 126.369 26.992C126.369 26.256 126.513 25.664 126.801 25.216C127.793 25.152 128.929 24.96 130.209 24.64C131.489 24.32 132.497 23.968 133.233 23.584C133.521 23.68 133.761 23.888 133.953 24.208C134.177 24.496 134.289 24.992 134.289 25.696C134.289 26.08 134.273 26.512 134.241 26.992C134.209 27.472 134.113 27.984 133.953 28.528C134.049 28.368 134.145 28.192 134.241 28C134.337 27.776 134.481 27.536 134.673 27.28C135.217 26.544 136.081 25.792 137.265 25.024C138.481 24.224 139.937 23.824 141.633 23.824C142.849 23.824 143.969 24.08 144.993 24.592C146.049 25.072 146.897 25.888 147.537 27.04C148.177 28.16 148.497 29.696 148.497 31.648V39.904ZM165.627 13.408C166.267 13.44 167.035 13.472 167.931 13.504C168.859 13.536 169.755 13.552 170.619 13.552C171.771 13.552 172.923 13.536 174.075 13.504C175.227 13.472 176.363 13.456 177.483 13.456C179.339 13.456 181.035 13.648 182.571 14.032C184.107 14.416 185.339 15.12 186.267 16.144C187.227 17.136 187.707 18.576 187.707 20.464C187.707 22.512 187.083 24.272 185.835 25.744C184.587 27.184 182.891 28.064 180.747 28.384C182.443 28.48 183.995 28.8 185.403 29.344C186.843 29.856 187.995 30.688 188.859 31.84C189.723 32.992 190.155 34.56 190.155 36.544C190.155 38.272 189.755 39.856 188.955 41.296C188.187 42.736 186.955 43.888 185.259 44.752C183.563 45.584 181.355 46 178.635 46C177.739 46 176.667 46 175.419 46C174.203 46 172.955 46 171.675 46C170.395 46.032 169.211 46.048 168.123 46.048C167.035 46.08 166.187 46.112 165.579 46.144C165.579 45.696 165.595 45.312 165.627 44.992C165.659 44.64 165.723 44.336 165.819 44.08C167.099 44.016 167.979 43.68 168.459 43.072C168.939 42.464 169.179 41.232 169.179 39.376V19.648C169.179 18.048 168.939 16.976 168.459 16.432C168.011 15.856 167.147 15.536 165.867 15.472C165.771 15.216 165.707 14.912 165.675 14.56C165.643 14.176 165.627 13.792 165.627 13.408ZM175.659 15.568C175.019 15.568 174.363 15.648 173.691 15.808V28H175.179C177.259 28 178.843 27.712 179.931 27.136C181.019 26.56 181.771 25.808 182.187 24.88C182.603 23.92 182.811 22.928 182.811 21.904C182.811 20.24 182.427 18.96 181.659 18.064C180.923 17.136 179.995 16.496 178.875 16.144C177.787 15.76 176.715 15.568 175.659 15.568ZM173.691 39.376C173.691 40.688 173.803 41.68 174.027 42.352C174.283 42.992 174.731 43.424 175.371 43.648C176.043 43.84 176.971 43.936 178.155 43.936C180.523 43.936 182.251 43.344 183.339 42.16C184.459 40.944 185.019 39.296 185.019 37.216C185.019 35.712 184.715 34.496 184.107 33.568C183.499 32.608 182.683 31.888 181.659 31.408C180.667 30.896 179.563 30.544 178.347 30.352C177.163 30.16 175.979 30.064 174.795 30.064H173.691V39.376ZM203.597 46.192C201.453 46.192 199.773 45.568 198.557 44.32C197.341 43.072 196.733 40.848 196.733 37.648V30.4C196.733 29.28 196.573 28.448 196.253 27.904C195.933 27.328 195.037 27.024 193.565 26.992C193.565 26.64 193.581 26.336 193.613 26.08C193.677 25.792 193.773 25.504 193.901 25.216C194.893 25.152 195.965 24.96 197.117 24.64C198.301 24.32 199.261 23.968 199.997 23.584C200.285 23.68 200.525 23.888 200.717 24.208C200.941 24.496 201.053 24.992 201.053 25.696V36.592C201.053 38.736 201.341 40.384 201.917 41.536C202.525 42.688 203.565 43.264 205.037 43.264C206.637 43.264 207.965 42.592 209.021 41.248C210.109 39.904 210.653 37.84 210.653 35.056V30.16C210.653 29.04 210.445 28.208 210.029 27.664C209.645 27.088 208.653 26.784 207.053 26.752C207.053 26.4 207.069 26.096 207.101 25.84C207.133 25.552 207.229 25.264 207.389 24.976C208.637 24.912 209.853 24.752 211.037 24.496C212.253 24.208 213.213 23.904 213.917 23.584C214.205 23.68 214.445 23.888 214.637 24.208C214.861 24.496 214.973 24.992 214.973 25.696V39.472C214.973 40.592 215.133 41.424 215.453 41.968C215.805 42.48 216.637 42.736 217.949 42.736C217.949 43.056 217.933 43.424 217.901 43.84C217.869 44.224 217.789 44.592 217.661 44.944C216.861 44.976 215.933 45.136 214.877 45.424C213.821 45.68 212.925 46.016 212.189 46.432C211.869 46.272 211.581 46.048 211.325 45.76C211.101 45.44 210.989 44.736 210.989 43.648C210.989 43.424 210.989 43.152 210.989 42.832C211.021 42.512 211.069 42.112 211.133 41.632C210.941 42.016 210.717 42.384 210.461 42.736C210.205 43.088 209.917 43.424 209.597 43.744C208.765 44.576 207.885 45.2 206.957 45.616C206.029 46 204.909 46.192 203.597 46.192ZM236.931 25.264C236.899 26.032 236.867 26.848 236.835 27.712C236.835 28.576 236.899 29.424 237.027 30.256C236.419 30.64 235.619 30.832 234.627 30.832C234.563 29.936 234.291 29.088 233.811 28.288C233.363 27.488 232.755 26.832 231.987 26.32C231.219 25.808 230.307 25.552 229.251 25.552C228.259 25.552 227.459 25.792 226.851 26.272C226.275 26.752 225.987 27.392 225.987 28.192C225.987 28.736 226.099 29.216 226.323 29.632C226.579 30.048 227.107 30.496 227.907 30.976C228.739 31.424 230.003 31.984 231.699 32.656C233.427 33.296 234.787 33.936 235.779 34.576C236.771 35.216 237.475 35.936 237.891 36.736C238.307 37.536 238.515 38.512 238.515 39.664C238.515 41.008 238.131 42.192 237.363 43.216C236.595 44.24 235.539 45.04 234.195 45.616C232.883 46.16 231.395 46.432 229.731 46.432C227.811 46.432 226.275 46.288 225.123 46C224.003 45.68 222.899 45.232 221.811 44.656C221.875 44.144 221.907 43.52 221.907 42.784C221.939 42.048 221.955 41.312 221.955 40.576C221.955 39.84 221.923 39.216 221.859 38.704C222.115 38.512 222.467 38.384 222.915 38.32C223.395 38.224 223.875 38.176 224.355 38.176C224.611 40.192 225.235 41.696 226.227 42.688C227.219 43.68 228.547 44.176 230.211 44.176C231.523 44.176 232.531 43.888 233.235 43.312C233.971 42.736 234.339 42 234.339 41.104C234.339 40.528 234.195 40.032 233.907 39.616C233.651 39.2 233.155 38.784 232.419 38.368C231.683 37.952 230.595 37.456 229.155 36.88C227.427 36.176 226.035 35.52 224.979 34.912C223.955 34.304 223.203 33.584 222.723 32.752C222.275 31.92 222.051 30.864 222.051 29.584C222.051 28.56 222.307 27.68 222.819 26.944C223.331 26.176 223.987 25.552 224.787 25.072C225.619 24.56 226.499 24.192 227.427 23.968C228.355 23.712 229.219 23.584 230.019 23.584C231.459 23.584 232.723 23.728 233.811 24.016C234.899 24.304 235.939 24.72 236.931 25.264Z" fill="#F9BC60"/>
</svg>
